<?xml version="1.0" encoding="utf-8"?>
<!-- Generator: Adobe Illustrator 19.0.0, SVG Export Plug-In . SVG Version: 6.00 Build 0)  -->
<svg version="1.1" id="Layer_1" xmlns="http://www.w3.org/2000/svg" xmlns:xlink="http://www.w3.org/1999/xlink" x="0px" y="0px"
	 viewBox="0 0 480 480" style="enable-background:new 0 0 480 480;" xml:space="preserve">
<style type="text/css">
	.st0{fill:#4C230C;}
	.st1{fill:#C49A6C;}
	.st2{fill:#96704A;}
	.st3{fill:#301407;}
	.st4{fill:#3D1B0A;}
	.st5{fill:#A97C50;}
	.st6{fill:#E2D1B0;}
	.st7{fill:#633110;}
</style>
<g id="XMLID_2_">
	<path id="XMLID_65_" class="st0" d="M417.5,377c-3.2-6.7-12.4-10.2-18.6-12.8c-10.2-4.2-21.3-5.9-32.2-7.1
		c-28.3-3.2-23.4,7.5-51.8,8.9l-152.5,0.1c-12-0.6-24.1,0.9-35.7,4.4c-7.9,2.4-16.6,7.1-18.2,15.8c-1.7,9.6,6.5,17.8,14.5,22.2
		c19.1,10.6,41.3,12.1,62.7,13.3c4,0.2,8.5,0.4,11.7-2.2c2-1.6,3.3-4,5.2-5.7c5.1-4.7,13.1-3.3,19,0.1c5.9,3.5,11,8.6,17.2,11.4
		c11.6,5.1,24.6,0.9,36.9-1.2c13.6-2.3,27.4-2.1,41.1-2.8c12.3-0.6,24.5-1.9,36.5-4.2c15-2.9,30.7-5,44.4-12.2
		c7.5-3.9,15.5-9.4,19.1-17.3c1.3-2.9,2-6.2,1.1-9.2C417.9,378.1,417.7,377.5,417.5,377z"/>
	<g id="XMLID_3_">
		<path id="XMLID_64_" class="st1" d="M148.4,352.8c-2.3-26.8-13.7-65.9,1.6-90.7c6.2-10,16.7,1.4,24.1,4.3
			c10.8,4.1,22.5,5.1,33.9,4.7c18.8-0.5,38.2-2.8,56.5-7.3c17.8-4.4,35.1-12,48.3-25c3.2-3.2,5.7-8.2,10.9-8.1
			c7.4,0.3,10.3,9.7,10.8,16.1c2-0.1,3.9,0.3,5.6,1c5,2.2,9.5,9.4,8.6,15.2c24.1,15,42.8,50.1,40.4,81c3.8-1.2,7.8-2,10.3-5.5
			c1.5-2.1,2-4.7,0.7-7.1c-0.7-1.2-2-2.9-3.4-1.7c-1.4,1.2,0,2.3,1.4,3.1c3.4,1.9,0.3,7.2-3,5.2c-4.1-2.4-7.2-8.2-3.8-12.5
			c4-5.1,11.5-2.2,14.3,2.6c6.3,10.7-6.2,23.3-17.1,21.4c-1.7,10.4-6,20.2-13.7,28.3c-5.2,5.6-11.8,9.3-18.9,12
			c-2.9,1.5-6,2.6-9.2,3.3c-2.4,4.9-7.7,8.7-12.8,9.8c-2.4,0.5-4.8,0.1-6.2-1.5c-2.2,1.4-4.7,2.3-7.4,2.2c-2-0.1-3.3-0.9-4.1-2.1
			c-0.2,0.1-0.3,0.2-0.5,0.3c-0.7,0.4-1.6,0.7-2.4,1c-3.6,2.4-9.1,1.4-11.3-2.6c-0.1-0.2-0.2-0.5-0.3-0.7c-0.2-0.1-0.3-0.3-0.5-0.4
			c-1.2-1.2-1.9-3.2-2-5.1c-0.3-0.1-0.5-0.1-0.8-0.2c0.3,8.5-4.1,18-13.6,18c-2.6,0-4.4-0.8-5.6-2.1c-4.1,4.2-11.2,6.7-15.6,2.1
			c-0.5-0.5-0.9-1.1-1.3-1.7c-3.5,4.4-11.2,5.1-15.4,0.5c-2.9-3.1-3.1-7.6-2.1-11.5c0.2-0.6,0.4-1.3,0.6-1.9
			c-2.6,0.6-5.4,0.8-8.3,0.6c-6.6-0.3-12.9-0.5-19.6-0.5c-7.2,0-16.4-0.9-23.7-4.2c-0.3,6.6-1.9,14.3-9.4,15.8c-3.8,0.7-7-0.5-9-2.9
			c-5.4,2.8-11.6,2.7-17.1-1c-0.6-0.4-1.1-1-1.4-1.6c-5.2,0.6-10.1-1-10.7-7.6c-0.6-6.2,2.2-13.3,2.6-19.6
			C149.4,368.4,149,360.6,148.4,352.8z"/>
		<path id="XMLID_63_" class="st2" d="M322.5,265.9c-2.6,1.4-5.4,2.5-8.2,3.1c3.6-3.1,7.6-5.8,11-9.2c4.1-4.1,7.3-8.8,9.1-14.2
			c0,0.4,0.1,0.8,0.1,1.2c0.3,0,0.6,0,0.8,0c-1.5,6.7-5.5,12.8-10.7,17.7C324,265,323.2,265.5,322.5,265.9z"/>
		<path id="XMLID_62_" class="st2" d="M349.7,266c-2.2,3.7-4.5,7.4-7.7,10.4c-1.9,1.8-3.9,2.9-5.9,3.9c3.1-2.8,6-5.7,8.3-9.4
			c1.7-2.9,2.9-5.8,3.8-8.8c0,0,0.1,0,0.1,0c0.2,0,0.4,0,0.6,0.1c0,0.3,0,0.6-0.1,0.9c0.5,0.3,1.1,0.7,1.6,1.1
			C350.2,264.7,349.9,265.3,349.7,266z"/>
		<path id="XMLID_61_" class="st2" d="M193,379.9c-0.4-9.7,0.5-19.4,3.1-28.8c3.4-11.9,11.2-22,24.7-21.3c17.5,0.9,19.8,21,21.3,35
			c0.9,8.6,1.8,17.3,2.5,25.9c0.2,2.2,0.3,4.5-0.1,6.7c-2.3,0.4-4.7,0.6-7.2,0.4c-6.6-0.3-12.9-0.5-19.6-0.5
			c-7.4,0-14.4-1.1-21.5-3.2c-0.5-0.1-1-0.3-1.3-0.7c-0.4-0.4-0.5-1.1-0.6-1.6C193.6,387.8,193.2,383.9,193,379.9z"/>
		<path id="XMLID_60_" class="st2" d="M296.6,372.1c0.4-8.4,1.6-16.6,6.2-24.1c4.4-7.2,10.8-12.9,16.5-19.1
			c7.5-8.3,11.4-16.2,11.7-27.3c0-0.4,0.7-0.6,0.8-0.1c0.9,5.8-0.2,11.2-1.6,16.7c11.7-5.1,26.4,0.2,31.4,12.1
			c0.2,0.6-0.7,0.9-1,0.4c-3.6-6.3-9.6-10.6-17-11.2c-5.2-0.5-11.3,1.2-15.5,4.2c-0.5,0.4-1.1,0.8-1.5,1.2c-0.8,1.1-1.7,2.1-2.7,3
			c-0.1,0.1-0.2,0.1-0.3,0.1c-2.3,2.7-4.4,5.7-7.1,8.1c-6.3,5.6-11.3,9.5-13.3,18.3c-2,8.8-2.9,17.9-3.7,26.9
			c-0.4,4.4-0.7,8.8-1.1,13.2c0,0.4-0.1,0.8-0.2,1.3c-1.2-5.2-1.7-10.6-1.7-16C296.5,377.2,296.5,374.7,296.6,372.1z"/>
		<path id="XMLID_59_" class="st2" d="M349.2,383.8c0.2-1.4,0.6-9,2.4-11.6c3.8,4.9,11.5,9.9,17.4,10.7c-3.6,3.2-8.8,5.3-13.1,7
			c-2.9,1.5-6,2.6-9.2,3.3c-0.7,1.4-1.6,2.7-2.8,3.9C346.1,392.8,348.3,388.6,349.2,383.8z"/>
		<g id="XMLID_4_">
			<g id="XMLID_56_">
				<path id="XMLID_58_" class="st3" d="M334.8,250.2c-5-2-9.8-4.6-14.8-6.8c-5-2.1-10.3-3.8-15.7-3.8c-5.4,0-11,1.9-14.7,5.9
					l-0.4,5.1c2.1,7.6,6.9,14.3,12.7,19.7c5.1,4.8,11.2,8.7,17.9,10.8c6.7,2.1,14.2,2.2,20.7-0.4c3.1-1.2,6-3,8.8-4.8
					c12-7.4,24.1-14.6,34-24.6C367.7,256.9,350.1,256.4,334.8,250.2z"/>
				<path id="XMLID_57_" class="st0" d="M313.9,257.5c-4.7-2.3-9-5.4-13.7-7.8c-3.3-1.7-7-3-10.7-3.4l-0.4,4.4
					c0.2,0.6,0.4,1.1,0.6,1.7c1.7,0,3.4,0.2,5.1,0.5c5.3,1.1,10,4.1,14.9,6.4c11.4,5.2,24.7,6.3,36.7,2.8
					C335.5,264.1,323.9,262.5,313.9,257.5z"/>
			</g>
			<path id="XMLID_55_" class="st0" d="M328.3,290.6c-0.1-4.5-0.4-9.2-2.3-13.3c-6.3-13.7-26.3-14.5-36.5-25.6
				c-3-3.2-4.9-7.2-7.4-10.8c-0.9-1.4-1.9-2.8-3.3-3.7c-2.8-1.8-6.4-1.4-9.8-1c-16.1,2-32.4,2.6-48.7,2l-26.5,0.3
				c-9.4-1.2-18.9-1.2-28.3-0.1c-3.4,0.4-7.6,1.8-7.8,5.2c-0.1,1.1,0.3,2.3,0,3.3c-0.4,1.3-1.7,2.1-2.8,2.8
				c-7.3,4.5-12.9,11.6-15.8,19.6c-0.5,1.5-1,3.1-2,4.4c-1.8,2.1-4.8,2.7-6.6,4.7c-3.6,3.9-0.7,10.2,2.3,14.7
				c6.3,9.4,12.7,18.8,19,28.2c3.8,5.7,7.7,11.4,11.9,16.8c5.2,6.6,11,12.6,17,18.4c7.1,6.9,14.6,13.6,23.6,17.8
				c1.9,0.9,4,1.7,6.1,1.4c1.4-0.2,2.8-0.8,4.1-1.4c34-16.2,68-32.5,102.1-48.7c4.2-2,8.8-4.4,10.7-8.7c1-2.2,1.1-4.8,1.1-7.2
				C328.5,303.4,328.5,297,328.3,290.6z"/>
			<path id="XMLID_54_" class="st3" d="M306,262c0,7.3-0.9,14.6-5.1,20.4c-3.8,5.3-9.8,8.6-15.6,11.7c-8.2,4.4-16.4,8.8-24.8,12.9
				c-4.7,2.3-9.4,4.5-14.5,5.5c-4.6,1-9.3,1-14,1c-13,0-25.9-0.5-38.9-1.3c17.8,3.8,36,6.1,54.2,7.1c3.8,0.2,7.7,0.4,11.4-0.3
				c3.9-0.7,7.5-2.2,11.2-3.7c8.7-3.7,17.5-7.3,25.6-12.1c4.1-2.4,8.1-5,11.5-8.4c6.8-6.6,10.7-15.4,13.6-24.5
				C316.5,266.8,311.3,264.4,306,262z"/>
			<g id="XMLID_51_">
				<path id="XMLID_53_" class="st3" d="M156.4,286.9c6.8,3.5,13.7,7,21.2,8.6c5.5,1.1,11.1,1.1,16.7,1.2c15.7,0,31.4,0.1,47.1,0.1
					c-14.6-2.5-29.4-4.4-44.2-5.7c-6.8-0.6-13.7-1-20.2-3.1c-13.8-4.5-23.8-15.7-34.2-26.1c-1.5,2.4-2.7,4.9-3.6,7.5
					c-0.5,1.5-1,3.1-2,4.4c-0.6,0.7-1.3,1.2-2.1,1.7C142.1,279.3,149.2,283.1,156.4,286.9z"/>
				<path id="XMLID_52_" class="st3" d="M207.2,357.1c1.9-0.1,3.7-0.7,5.5-1.4c14.2-5.4,27.8-12.8,39.6-22.5
					c-9.3,4.3-18.9,8.1-28.7,11.3c-3.2,1-6.4,2-9.7,1.9c-3.3-0.1-6.5-1.4-9.6-2.6c-17.9-7.2-35.6-15-53-23.3
					c0.2,0.3,0.3,0.5,0.5,0.8c3.8,5.7,7.7,11.4,11.9,16.8c3,3.8,6.2,7.4,9.5,10.8c9.4,2.4,18.7,4.9,28.1,7.3
					C203.2,356.7,205.2,357.2,207.2,357.1z"/>
			</g>
			<g id="XMLID_48_">
				<path id="XMLID_50_" class="st3" d="M290.4,235.4c0,0,2.9-11.9,15.2-17.5c12.3-5.7,40,0.2,51.3-10c0,0-5.9,25-15.7,33.6
					c-9.8,8.7-34.7,8.4-49.2,1.7L290.4,235.4z"/>
				<path id="XMLID_49_" class="st0" d="M312,232c4.6-3.2,12.9-6.3,12.9-6.3c-9.7,0.1-24.8,7.8-28.6,10c-1.4,0.8-3.4,1.2-5.4,1.5
					l1,4.7C299.4,240.5,308.1,234.7,312,232z"/>
			</g>
			<g id="XMLID_5_">
				<g id="XMLID_23_">
					<path id="XMLID_47_" d="M282.6,126.8c1.8,0.1,3.7-0.6,5.6-0.5c4.1,0.1,7,2.2,8.9,5.7c3.1,5.6,2.8,12.9,4.1,19
						c0.2,1,0.4,2,0.6,3c-3.6-2.8-6.2-7.5-8.8-10.9c-1.7-2.2-3.4-4.4-5.2-6.6c-1.6-2-3.7-5.3-5.9-6.7c-2.6-1.7-3.6-3.8-3.5-5.7
						C279.7,125.4,280.8,126.7,282.6,126.8z"/>
					<path id="XMLID_46_" d="M174.7,126.8c-1.8,0.1-3.7-0.6-5.6-0.5c-4.1,0.1-7,2.2-8.9,5.7c-3.1,5.6-2.8,12.9-4.1,19
						c-0.2,1-0.4,2-0.6,3c3.6-2.8,6.2-7.5,8.8-10.9c1.7-2.2,3.4-4.4,5.2-6.6c1.6-2,3.7-5.3,5.9-6.7c2.6-1.7,3.6-3.8,3.5-5.7
						C177.6,125.4,176.5,126.7,174.7,126.8z"/>
					<path id="XMLID_45_" class="st1" d="M311,152.4c-4.8-14.2-15.7-25.5-27.4-34.5c-21.8-16.7-44.7-9-54.3-9c-0.2,0-0.5,0-0.7,0v0
						c0,0,0,0,0,0c0,0,0,0,0,0v0c-0.3,0-0.5,0-0.7,0c-9.6,0-32.4-7.7-54.3,9c-11.7,8.9-22.6,20.3-27.4,34.5
						c-2.5,7.3-3.6,15.6-3.6,23.3c0,32,6.9,34.6,14.7,44.9c6.9,9.2,7.5,35.1,28.5,35.1c14.3,0,28.5,5.2,42.8,5.1v0c0,0,0,0,0,0
						c0,0,0,0,0,0v0c14.3,0.1,28.5-5.1,42.8-5.1c21,0,21.5-25.9,28.5-35.1c7.8-10.3,14.7-12.8,14.7-44.9
						C314.7,168,313.5,159.6,311,152.4z"/>
					<path id="XMLID_44_" class="st3" d="M180.3,250c0.7-4.2,6-1.1,8.2-0.4c4.1,1.2,8.6,2,12.7,0.4c7.1-2.7,10.8-10.2,16.1-15.3
						c7-6.8,16.5-6.5,23.7,0.2c5.3,4.9,8.3,12.5,15,15.1c4.1,1.6,8.6,0.8,12.7-0.4c2.2-0.6,7.5-3.8,8.2,0.4c0.3,1.6-0.7,3.2-1.7,4.6
						c-7.6,9.9-21.8,12.4-34.1,10.6c-4.2-0.6-8.3-1.5-12.5-1.9c-4.2,0.3-8.4,1.3-12.5,1.9c-12.4,1.8-26.5-0.7-34.1-10.6
						C180.9,253.2,180,251.6,180.3,250z"/>
					<path id="XMLID_43_" class="st4" d="M277,250c-0.7-4.2-6-1.1-8.2-0.4c-4.1,1.2-8.6,2-12.7,0.4c-6.7-2.6-9.8-10.2-15-15.1
						c-2.5-2.3-5.2-3.8-8-4.5c1.3,9.5,7.1,12.5,15.2,18.5c5.7,4.2,10.8,9.7,13.8,14.2c0,0-0.1,0-0.1,0c-6.6-1.1-11.9-5-17.1-9.6
						c-4.3-3.8-9-8.7-14.2-10.8c-0.6-0.3-1.3-0.3-1.9-0.3v-12.5c-4,0.1-8,1.7-11.3,4.9c-5.3,5.1-9,12.5-16.1,15.3
						c-4.1,1.6-8.6,0.8-12.7-0.4c-2.2-0.6-7.5-3.8-8.2,0.4c-0.3,1.6,0.7,3.2,1.7,4.6c7.6,9.9,21.8,12.4,34.1,10.6
						c4.2-0.6,8.3-1.5,12.5-1.9c4.2,0.3,8.4,1.3,12.5,1.9c12.4,1.8,26.5-0.7,34.1-10.6C276.3,253.2,277.2,251.6,277,250z"/>
					<path id="XMLID_42_" class="st5" d="M216.5,143.6c0.1,0,0.1,0.1,0,0.1C216.4,143.7,216.4,143.6,216.5,143.6z"/>
					<g id="XMLID_36_">
						<path id="XMLID_41_" class="st4" d="M224.6,173.8c0-1.9-0.5-3.8-0.4-5.8c0.1-3.2,0-6.4-1-9.4c-1.5-4.9-5.5-9.5-10.7-9.9
							c-4.8-0.4-9.1,2.6-13.5,4.4c-11.1,4.5-23.6,1.4-35.6,2.4c-5.1,0.4-10.4,1.8-13.8,5.6c-4.8,5.4-4.1,13.7-2.2,20.6
							c1.5,5.4,3.6,10.5,6.1,15.5c1.8,3.5,4,7,7.3,9.3c2.7,2,6,3,9.2,3.8c5.7,1.6,12,2.7,17.5,0.4c8.2-3.4,11.8-12.8,17.6-19.6
							c3.5-4.1,8.3-6.7,13-9.2c1.9-1,3.8-2.2,5.1-3.9C224.3,176.6,224.6,175.2,224.6,173.8z"/>
						<path id="XMLID_40_" class="st6" d="M207.4,161.7c-3.4,0.4-6.8,0-10.2-0.5c-14.1-2-28.2,1.9-41.7,6.8
							c1,15,13.5,26.9,28.8,26.9c15.9,0,28.9-12.9,28.9-28.9c0-1.9-0.2-3.8-0.6-5.7C211.1,161.4,209.2,161.6,207.4,161.7z"/>
						<path id="XMLID_39_" class="st3" d="M208.1,161.6c-0.2,0-0.5-0.1-0.7,0c-3.4,0.4-6-0.3-9.4-0.8c-12.3-1.7-25.4,1.6-37.4,5.6
							c1.4,11.9,11.4,21.1,23.6,21.1c13.2,0,23.8-10.7,23.8-23.8C208.1,163,208.1,162,208.1,161.6z"/>
						<circle id="XMLID_38_" class="st6" cx="196.1" cy="178.9" r="5.9"/>
						<path id="XMLID_37_" class="st7" d="M215.7,158.3C215.7,158.3,215.7,158.3,215.7,158.3c-1.6,1.1-3.6,1.9-5.6,2.1
							c-3.8,0.5-7.7-0.3-11.5-0.7c-15.8-1.7-31.4,3.3-46.3,9.3c0,0.4,28.5-10,46.7-8.1c3.9,0.4,7.9,1.2,11.8,0.7
							c1.3-0.2,2.5-0.5,3.7-1.1C215.4,160.3,215.9,159.3,215.7,158.3z"/>
					</g>
					<g id="XMLID_30_">
						<path id="XMLID_35_" class="st4" d="M232.7,173.8c0-1.9,0.5-3.8,0.4-5.8c-0.1-3.2,0-6.4,1-9.4c1.5-4.9,5.5-9.5,10.7-9.9
							c4.8-0.4,9.1,2.6,13.5,4.4c11.1,4.5,23.6,1.4,35.6,2.4c5.1,0.4,10.4,1.8,13.8,5.6c4.8,5.4,4.1,13.7,2.2,20.6
							c-1.5,5.4-3.6,10.5-6.1,15.5c-1.8,3.5-4,7-7.3,9.3c-2.7,2-6,3-9.2,3.8c-5.7,1.6-12,2.7-17.5,0.4c-8.2-3.4-11.8-12.8-17.6-19.6
							c-3.5-4.1-8.3-6.7-13-9.2c-1.9-1-3.8-2.2-5.1-3.9C233,176.6,232.7,175.2,232.7,173.8z"/>
						<path id="XMLID_34_" class="st6" d="M249.8,161.7c3.4,0.4,6.8,0,10.2-0.5c14.1-2,28.2,1.9,41.7,6.8c-1,15-13.5,26.9-28.8,26.9
							c-15.9,0-28.9-12.9-28.9-28.9c0-1.9,0.2-3.8,0.6-5.7C246.2,161.4,248.1,161.6,249.8,161.7z"/>
						<path id="XMLID_33_" class="st3" d="M249.2,161.6c0.2,0,0.5-0.1,0.7,0c3.4,0.4,6-0.3,9.4-0.8c12.3-1.7,25.4,1.6,37.4,5.6
							c-1.4,11.9-11.4,21.1-23.6,21.1c-13.2,0-23.8-10.7-23.8-23.8C249.2,163,249.1,162,249.2,161.6z"/>
						<circle id="XMLID_32_" class="st6" cx="284.4" cy="178.9" r="5.9"/>
						<path id="XMLID_31_" class="st7" d="M241.6,158.3C241.6,158.3,241.6,158.3,241.6,158.3c1.6,1.1,3.6,1.9,5.6,2.1
							c3.8,0.5,7.7-0.3,11.5-0.7c15.8-1.7,31.4,3.3,46.3,9.3c0,0.4-28.5-10-46.7-8.1c-3.9,0.4-7.9,1.2-11.8,0.7
							c-1.3-0.2-2.5-0.5-3.7-1.1C241.8,160.3,241.3,159.3,241.6,158.3z"/>
					</g>
					<path id="XMLID_29_" class="st7" d="M196.4,198.2c8.8-8.4,20.1-15.4,32-15.6c11.9-0.2,23.5,7,32.5,15.6
						c10.1,9.7,28.2,27.9,26.3,44.9c-1.6,14-13.8,21.8-25.3,19.9c-6.6-1.1-9.1-7.2-14.3-11.7c-4.1-3.7-15.2-11-20.9-8.7
						c-5.2,2.1-9.9,7-14.2,10.8c-5.2,4.6-10.5,8.5-17.1,9.6c-11.4,1.9-23.7-5.9-25.3-19.9C168.2,226.1,186.3,207.8,196.4,198.2z"/>
					<path id="XMLID_28_" class="st3" d="M248.7,194.2c-0.4-1.3-1.1-2.5-2.2-3.5c-2.4-2.2-5.8-3.1-9.1-3.3c-1.9-0.1-3.8-0.1-5.6,0.6
						c-1.3,0.4-2.4,1.2-3.3,2.2c-0.9-1-2-1.7-3.3-2.2c-1.8-0.6-3.7-0.7-5.6-0.6c-3.3,0.2-6.7,1.1-9.1,3.3c-1,1-1.8,2.2-2.2,3.5
						c-0.9,2.9-0.1,6.3,2.8,8c2.5,1.5,5.4,1,6.6-1.8c0.9-2.2,0.7-6.6,4.7-5.3c1.8,0.6,2.8,2.8,2.5,4.8c-0.3,1.9-1.8,3.5-3.5,4.5
						c-1.3,0.8-3,1.4-3.4,2.9c-0.3,1.2,0.5,2.6,1.6,3.2c2,1.1,4.6,0.4,6.2-1.1c1.3-1.2,2.1-2.8,2.7-4.4c0.6,1.7,1.4,3.2,2.7,4.4
						c1.6,1.5,4.2,2.2,6.2,1.1c1.1-0.6,2-1.9,1.6-3.2c-0.4-1.5-2.1-2.1-3.4-2.9c-1.7-1-3.1-2.6-3.5-4.5c-0.3-1.9,0.7-4.1,2.5-4.8
						c3.9-1.4,3.8,3.1,4.7,5.3c1.1,2.8,4.1,3.3,6.6,1.8C248.9,200.4,249.6,197.1,248.7,194.2z"/>
					<path id="XMLID_27_" class="st3" d="M214.6,206.8c0.8,10.8,10,5.6,10,18.9c0,13.3-6.2,16.2-15.5,23.1
						c-5.7,4.2-10.8,9.7-13.8,14.2c0,0,0.1,0,0.1,0c6.6-1.1,11.9-5,17.1-9.6c4.3-3.8,9-8.7,14.2-10.8c0.6-0.3,1.3-0.3,1.9-0.3v-28.6
						C215.3,213,214.6,206.8,214.6,206.8z"/>
					<path id="XMLID_26_" class="st3" d="M242.7,206.8c-0.8,10.8-10,5.6-10,18.9c0,13.3,6.2,16.2,15.5,23.1
						c5.7,4.2,10.8,9.7,13.8,14.2c0,0-0.1,0-0.1,0c-6.6-1.1-11.9-5-17.1-9.6c-4.3-3.8-9-8.7-14.2-10.8c-0.6-0.3-1.3-0.3-1.9-0.3
						v-28.6C241.9,213,242.7,206.8,242.7,206.8z"/>
					<path id="XMLID_25_" class="st3" d="M176.9,127c0.3-0.1,0.6-0.3,0.9-0.5c0.3-0.2,0.5-0.4,0.7-0.6c1.3-2-2.8-6.1-4.1-7.2
						c-3-2.4-7-3.3-10.8-3.3c-8.6-0.1-17.1,2.7-25,5.7c-7.8,3-15.4,6.7-22.8,10.7c-2,1.1-4,2.2-6,3.4c-2.1,1.3-4.4,2.9-4.5,5.4
						c-0.1,1.2,0.5,2.4,1,3.5c7.2,14.7,17,28,28.9,39.3c0.9,0.8,1.8,1.7,3,1.9c2.8,0.5,4.7-2.8,5.7-5.4c5.5-14.6,12-28.9,19.3-42.8
						c1.5-2.8,2.3-6.5,4.6-8.9c1-1,2.1-1.7,3.5-1.8c1.6-0.1,2.7,1,4.2,1C176,127.4,176.4,127.2,176.9,127z"/>
					<path id="XMLID_24_" class="st3" d="M280.4,127c-0.3-0.1-0.6-0.3-0.9-0.5c-0.3-0.2-0.5-0.4-0.7-0.6c-1.3-2,2.8-6.1,4.1-7.2
						c3-2.4,7-3.3,10.8-3.3c8.6-0.1,17.1,2.7,25,5.7c7.8,3,15.4,6.7,22.8,10.7c2,1.1,4,2.2,6,3.4c2.1,1.3,4.4,2.9,4.5,5.4
						c0.1,1.2-0.5,2.4-1,3.5c-7.2,14.7-17,28-28.9,39.3c-0.9,0.8-1.8,1.7-3,1.9c-2.8,0.5-4.7-2.8-5.7-5.4
						c-5.5-14.6-12-28.9-19.3-42.8c-1.5-2.8-2.3-6.5-4.6-8.9c-1-1-2.1-1.7-3.5-1.8c-1.6-0.1-2.7,1-4.2,1
						C281.3,127.4,280.8,127.2,280.4,127z"/>
				</g>
				<path id="XMLID_22_" class="st3" d="M311.3,88.1c-8.2-14.9-20.1-28.5-29.8-42.9c-2.9-4.4-5.7-8.9-10.1-12.4
					c-4.3-3.6-10.6-6.2-16.9-5.5c-9.1,1-17.3,8.5-25.9,5.9c-8.6,2.7-16.7-4.9-25.9-5.9c-6.3-0.7-12.5,1.9-16.9,5.5
					c-4.3,3.6-7.1,8.1-10.1,12.4c-9.7,14.4-21.6,27.9-29.8,42.9c-8.2,14.9-12.6,32-6.3,47.5l35.3,16.8h53.7h53.7l35.3-16.8
					C323.9,120,319.5,103,311.3,88.1z"/>
				<polygon id="XMLID_21_" class="st6" points="135.5,129.9 194.3,148 265.8,148 321.8,130.5 321.8,111.1 135.5,111.1 				"/>
				<rect id="XMLID_20_" x="135.5" y="111.1" class="st0" width="186.3" height="13.5"/>
				<g id="XMLID_7_">
					<polygon id="XMLID_19_" class="st6" points="141.9,112.7 143.5,116.1 147.3,116.6 144.6,119.3 145.2,123 141.9,121.2 
						138.5,123 139.1,119.3 136.4,116.6 140.2,116.1 					"/>
					<polygon id="XMLID_18_" class="st6" points="157.6,112.7 159.3,116.1 163.1,116.6 160.4,119.3 161,123 157.6,121.2 154.3,123 
						154.9,119.3 152.2,116.6 156,116.1 					"/>
					<polygon id="XMLID_17_" class="st6" points="173.4,112.7 175.1,116.1 178.8,116.6 176.1,119.3 176.8,123 173.4,121.2 
						170.1,123 170.7,119.3 168,116.6 171.7,116.1 					"/>
					<polygon id="XMLID_16_" class="st6" points="189.2,112.7 190.9,116.1 194.6,116.6 191.9,119.3 192.5,123 189.2,121.2 
						185.8,123 186.5,119.3 183.8,116.6 187.5,116.1 					"/>
					<polygon id="XMLID_15_" class="st6" points="205,112.7 206.6,116.1 210.4,116.6 207.7,119.3 208.3,123 205,121.2 201.6,123 
						202.3,119.3 199.5,116.6 203.3,116.1 					"/>
					<polygon id="XMLID_14_" class="st6" points="220.7,112.7 222.4,116.1 226.2,116.6 223.5,119.3 224.1,123 220.7,121.2 
						217.4,123 218,119.3 215.3,116.6 219.1,116.1 					"/>
					<polygon id="XMLID_13_" class="st6" points="236.5,112.7 238.2,116.1 241.9,116.6 239.2,119.3 239.9,123 236.5,121.2 
						233.2,123 233.8,119.3 231.1,116.6 234.8,116.1 					"/>
					<polygon id="XMLID_12_" class="st6" points="252.3,112.7 254,116.1 257.7,116.6 255,119.3 255.7,123 252.3,121.2 248.9,123 
						249.6,119.3 246.9,116.6 250.6,116.1 					"/>
					<polygon id="XMLID_11_" class="st6" points="268.1,112.7 269.7,116.1 273.5,116.6 270.8,119.3 271.4,123 268.1,121.2 
						264.7,123 265.4,119.3 262.6,116.6 266.4,116.1 					"/>
					<polygon id="XMLID_10_" class="st6" points="283.8,112.7 285.5,116.1 289.3,116.6 286.6,119.3 287.2,123 283.8,121.2 
						280.5,123 281.1,119.3 278.4,116.6 282.2,116.1 					"/>
					<polygon id="XMLID_9_" class="st6" points="299.6,112.7 301.3,116.1 305.1,116.6 302.3,119.3 303,123 299.6,121.2 296.3,123 
						296.9,119.3 294.2,116.6 297.9,116.1 					"/>
					<polygon id="XMLID_8_" class="st6" points="315.4,112.7 317.1,116.1 320.8,116.6 318.1,119.3 318.8,123 315.4,121.2 312,123 
						312.7,119.3 310,116.6 313.7,116.1 					"/>
				</g>
				<path id="XMLID_6_" class="st4" d="M358,77.4c-15.5,21.3-60.2,59.7-79.6,62.7c-19.2,3-49.8,3.2-49.8,3.2s-30.6-0.2-49.8-3.2
					c-19.4-3.1-64-41.4-79.6-62.7C83.7,56.1,49.4,56.7,73.4,93c23.9,36.2,86.7,57.6,155.3,57.6c68.6,0,131.3-21.4,155.3-57.6
					C407.8,56.7,373.5,56.1,358,77.4z"/>
			</g>
		</g>
	</g>
</g>
</svg>
